<?xml version="1.0" encoding="utf-8"?>
<!-- Generator: Adobe Illustrator 15.1.0, SVG Export Plug-In . SVG Version: 6.00 Build 0)  -->
<!DOCTYPE svg PUBLIC "-//W3C//DTD SVG 1.1//EN" "http://www.w3.org/Graphics/SVG/1.1/DTD/svg11.dtd">
<svg version="1.1" id="Warstwa_1" xmlns="http://www.w3.org/2000/svg" xmlns:xlink="http://www.w3.org/1999/xlink" x="0px" y="0px"
	 width="304.733px" height="104.484px" viewBox="0 0 304.733 104.484" enable-background="new 0 0 304.733 104.484"
	 xml:space="preserve">
<path fill="#ED1C24" d="M235.992,30.425c0.667,0.012,1.207,0.196,1.632,0.563c0.414,0.356,0.633,0.839,0.644,1.437
	c0,0.528-0.138,1.16-0.401,1.896c-0.265,0.747-0.667,1.517-1.207,2.31c-0.528,0.804-1.184,1.551-1.977,2.252
	c-0.793,0.689-1.712,1.264-2.758,1.689c-1.046,0.437-2.218,0.667-3.517,0.679c-0.207,0-0.414,0-0.621-0.012
	c-0.207,0-0.413-0.023-0.62-0.058c0.598-1.414,1.252-2.758,1.987-4.034c0.736-1.287,1.506-2.436,2.299-3.436
	c0.793-1.011,1.574-1.805,2.356-2.391C234.59,30.736,235.314,30.437,235.992,30.425L235.992,30.425z M191.451,49.111
	c0.011,1.333,0.321,2.551,0.953,3.655c0.62,1.103,1.482,2.045,2.598,2.85c1.114,0.804,2.412,1.425,3.896,1.862
	c1.482,0.437,3.091,0.667,4.826,0.667c0.747,0,1.644-0.115,2.713-0.345c1.067-0.229,2.24-0.585,3.538-1.08
	c1.299-0.506,2.655-1.149,4.092-1.954c2.401-1.368,4.148-2.551,5.263-3.551c1.104-1,1.644-1.908,1.632-2.724
	c0-0.379-0.068-0.689-0.206-0.908c-0.139-0.218-0.345-0.333-0.621-0.333c-0.253,0.011-0.62,0.138-1.114,0.391
	c-0.482,0.252-1.081,0.575-1.77,0.965c-0.701,0.402-1.483,0.815-2.356,1.264c-1.482,0.724-3,1.379-4.551,1.988
	c-1.552,0.598-3.045,1.08-4.481,1.448c-1.437,0.368-2.724,0.552-3.861,0.563c-0.747,0-1.321-0.126-1.712-0.378
	c-0.391-0.253-0.645-0.655-0.782-1.195s-0.206-1.23-0.195-2.08c0.012-1.287,0.173-2.632,0.482-4.045
	c0.311-1.414,0.736-2.815,1.265-4.217c0.528-1.402,1.126-2.735,1.781-3.988c0.655-1.252,1.321-2.367,2.011-3.344
	c0.689-0.977,1.345-1.747,1.966-2.298c0.632-0.563,1.184-0.85,1.666-0.862c0.219,0,0.402,0.046,0.574,0.149
	c0.173,0.092,0.276,0.23,0.322,0.402c-0.207,0.609-0.438,1.322-0.667,2.115c-0.241,0.804-0.471,1.644-0.678,2.528
	c-0.207,0.884-0.379,1.758-0.518,2.62c-0.138,0.862-0.206,1.655-0.206,2.391c0.011,0.862,0.172,1.551,0.482,2.057
	c0.31,0.505,0.735,0.862,1.264,1.081c0.529,0.206,1.115,0.321,1.77,0.31c0.736,0,1.391-0.069,1.988-0.218
	c0.586-0.138,1.08-0.368,1.46-0.678c0.459-0.391,0.851-0.908,1.16-1.551c0.311-0.632,0.563-1.333,0.747-2.092
	c0.184-0.747,0.311-1.482,0.391-2.218c0.081-0.724,0.115-1.367,0.115-1.93c0-1.621-0.127-2.977-0.391-4.08
	c-0.265-1.104-0.679-2.023-1.241-2.758c-0.575-0.747-1.311-1.379-2.229-1.919c-0.885-0.552-1.815-0.965-2.793-1.241
	c-0.977-0.276-2.045-0.414-3.206-0.414c-1.401,0.023-2.758,0.414-4.057,1.184c-1.298,0.782-2.527,1.827-3.666,3.137
	c-1.148,1.31-2.183,2.781-3.125,4.413c-0.932,1.632-1.735,3.31-2.414,5.034c-0.678,1.735-1.194,3.402-1.563,5.01
	C191.634,46.399,191.451,47.835,191.451,49.111L191.451,49.111z M175.936,45.25c-0.689,1.229-1.494,2.39-2.401,3.481
	c-0.92,1.081-1.851,2.034-2.781,2.873c-0.942,0.828-1.793,1.482-2.551,1.954c-0.759,0.471-1.334,0.712-1.713,0.724
	c-0.299-0.012-0.517-0.115-0.666-0.322c-0.149-0.207-0.253-0.482-0.299-0.804s-0.069-0.655-0.069-1.011
	c0.012-1.241,0.207-2.609,0.598-4.08c0.402-1.471,0.931-2.977,1.609-4.505c0.666-1.54,1.437-3.011,2.286-4.424
	c0.851-1.414,1.735-2.678,2.654-3.804c0.932-1.115,1.827-2.011,2.724-2.666c0.896-0.655,1.713-0.988,2.472-1
	c0.448,0.012,0.885,0.104,1.31,0.311c0.437,0.195,0.827,0.459,1.172,0.781c0.334,0.322,0.587,0.667,0.759,1.046
	c-0.482,0.919-0.942,1.931-1.367,3.056c-0.426,1.126-0.92,2.379-1.494,3.77C177.614,42.009,176.855,43.549,175.936,45.25
	L175.936,45.25z M175.109,27.047c-1.413,0.011-2.77,0.333-4.068,0.977c-1.31,0.632-2.539,1.505-3.7,2.597
	c-1.161,1.103-2.241,2.367-3.24,3.77c-0.988,1.413-1.885,2.907-2.678,4.47c-0.793,1.563-1.46,3.125-2.022,4.688
	c-0.563,1.563-0.988,3.045-1.287,4.447s-0.448,2.644-0.448,3.735c0,1.023,0.184,1.885,0.517,2.574
	c0.345,0.689,0.828,1.252,1.448,1.701c0.609,0.448,1.345,0.816,2.172,1.103c0.793,0.276,1.563,0.495,2.299,0.655
	s1.425,0.241,2.045,0.241c1.023,0,1.977-0.103,2.861-0.333c0.873-0.229,1.735-0.586,2.574-1.092c0.839-0.495,1.713-1.161,2.62-1.977
	c0.908-0.827,1.896-1.827,2.977-3.011c0.149,0.655,0.46,1.252,0.954,1.792c0.482,0.541,1.08,1.011,1.78,1.391
	c0.702,0.391,1.46,0.701,2.265,0.908c0.793,0.207,1.597,0.322,2.378,0.322c1.115-0.011,2.126-0.195,3.012-0.575
	c0.885-0.379,1.77-0.896,2.643-1.563c0.679-0.505,1.276-1.045,1.805-1.609c0.528-0.563,0.942-1.137,1.241-1.723
	c0.31-0.575,0.459-1.149,0.471-1.701c0-0.379-0.069-0.689-0.207-0.907c-0.138-0.219-0.344-0.333-0.62-0.333
	c-0.265,0-0.552,0.104-0.851,0.298c-0.299,0.196-0.644,0.46-1.057,0.805c-0.414,0.345-0.931,0.736-1.54,1.172
	c-0.633,0.437-1.253,0.827-1.874,1.172c-0.62,0.345-1.206,0.609-1.746,0.804c-0.552,0.196-1.012,0.299-1.414,0.299
	c-0.241,0-0.413-0.092-0.528-0.265c-0.104-0.184-0.161-0.46-0.161-0.839c0.012-0.965,0.161-2.103,0.448-3.39
	c0.288-1.298,0.667-2.643,1.127-4.045c0.448-1.39,0.941-2.735,1.448-4.011c0.517-1.275,0.999-2.378,1.459-3.31
	c0.275-0.563,0.551-1,0.792-1.31c0.254-0.322,0.461-0.585,0.621-0.804c0.149-0.207,0.241-0.448,0.241-0.713
	c-0.022-0.437-0.172-0.747-0.459-0.919s-0.587-0.264-0.92-0.253c-0.345,0.011-0.724,0.046-1.126,0.115
	c-0.413,0.069-0.839,0.115-1.287,0.161c-0.311-0.977-0.724-1.735-1.241-2.287c-0.528-0.552-1.114-0.988-1.77-1.288
	c-0.655-0.298-1.321-0.551-2.022-0.77c-0.827-0.288-1.724-0.552-2.7-0.793C177.35,27.185,176.281,27.058,175.109,27.047
	L175.109,27.047z M143.529,50.007c0.023,1.115,0.288,2.103,0.816,2.93c0.529,0.839,1.207,1.54,2.034,2.092
	c0.816,0.563,1.666,0.977,2.563,1.253c0.885,0.275,1.701,0.414,2.447,0.414c1.265-0.012,2.472-0.195,3.609-0.552
	c1.148-0.356,2.218-0.815,3.183-1.39c0.966-0.563,1.805-1.172,2.518-1.816c0.724-0.632,1.274-1.253,1.677-1.827
	c0.391-0.586,0.587-1.068,0.598-1.448c0-0.31-0.069-0.563-0.207-0.747s-0.344-0.287-0.62-0.287c-0.207,0.011-0.62,0.138-1.229,0.39
	c-0.598,0.253-1.321,0.575-2.138,0.943c-0.827,0.379-1.666,0.747-2.528,1.126c-0.851,0.368-1.632,0.689-2.345,0.942
	c-0.7,0.253-1.24,0.379-1.619,0.391c-0.38,0-0.656-0.126-0.839-0.367c-0.173-0.242-0.265-0.598-0.265-1.081
	c0.011-1.034,0.172-2.367,0.494-4c0.311-1.62,0.747-3.458,1.299-5.493c0.551-2.034,1.172-4.183,1.873-6.436
	c0.701-2.252,1.437-4.527,2.206-6.814c0.77-2.275,1.528-4.481,2.275-6.596c0.759-2.126,1.459-4.068,2.126-5.838
	c0.655-1.77,1.219-3.275,1.701-4.505c0.482-1.218,0.838-2.091,1.057-2.585c0.645-1.402,1.184-2.505,1.609-3.287
	c0.425-0.781,0.747-1.356,0.965-1.724c0.219-0.379,0.321-0.666,0.321-0.85c0-0.334-0.172-0.655-0.517-0.966
	c-0.345-0.31-0.862-0.574-1.54-0.781c-0.666-0.207-1.505-0.31-2.493-0.322c-1.092,0-2.034,0.126-2.851,0.379
	c-0.815,0.253-1.448,0.632-1.907,1.126c-0.448,0.483-0.678,1.092-0.689,1.804c0,0.126,0.012,0.288,0.022,0.483
	c0.012,0.207,0.023,0.413,0.046,0.621c0.023,0.195,0.047,0.356,0.069,0.482c-0.253,0.609-0.644,1.574-1.16,2.884
	c-0.518,1.322-1.127,2.896-1.827,4.734c-0.701,1.839-1.437,3.85-2.229,6.022c-0.793,2.184-1.586,4.447-2.391,6.792
	s-1.574,4.677-2.298,7.01c-0.735,2.321-1.379,4.551-1.954,6.677c-0.575,2.126-1.022,4.068-1.356,5.815
	C143.702,47.353,143.541,48.824,143.529,50.007L143.529,50.007z M124.43,13.188c3.379,0,6.229,0.138,8.527,0.391
	c2.31,0.264,4.149,0.632,5.528,1.115c1.379,0.482,2.378,1.057,2.976,1.724c0.609,0.667,0.908,1.402,0.896,2.218
	c-0.011,0.988-0.379,2.034-1.103,3.161c-0.724,1.114-1.712,2.241-2.976,3.378c-1.264,1.138-2.701,2.218-4.333,3.241
	c-1.631,1.034-3.355,1.954-5.183,2.758c-1.827,0.805-3.666,1.448-5.528,1.919c-1.85,0.46-3.643,0.701-5.354,0.713h-0.69
	c1.138-3.528,2.322-7.033,3.54-10.515C121.948,19.807,123.189,16.44,124.43,13.188L124.43,13.188z M148.701,19.6
	c0-0.93-0.092-1.804-0.275-2.62c-0.173-0.816-0.402-1.552-0.69-2.207c-0.816-1.954-2.115-3.563-3.873-4.827
	c-1.758-1.264-4.034-2.195-6.803-2.804c-2.77-0.621-6.091-0.919-9.941-0.919c-0.792,0-1.574,0-2.344,0.012
	c-0.77,0.023-1.551,0.058-2.344,0.126c-0.414-0.275-0.862-0.494-1.322-0.655c-0.459-0.161-0.919-0.242-1.367-0.242
	c-0.54,0-0.988,0.115-1.333,0.345c-0.345,0.23-0.644,0.552-0.873,0.965c-2.057,0.23-4.022,0.518-5.884,0.851
	c-1.873,0.333-3.585,0.701-5.148,1.103c-1.552,0.391-2.885,0.805-3.999,1.218c-0.759,0.287-1.379,0.586-1.874,0.896
	c-0.482,0.299-0.851,0.643-1.08,1.034c-0.242,0.402-0.357,0.885-0.357,1.448c0.012,0.552,0.092,1.034,0.253,1.437
	c0.161,0.402,0.367,0.701,0.597,0.919s0.448,0.333,0.667,0.333c0.288-0.012,1.023-0.149,2.241-0.426
	c1.207-0.264,2.85-0.585,4.918-0.942c2.068-0.368,4.528-0.689,7.389-0.977c-0.977,2.988-1.93,5.93-2.85,8.849
	c-0.931,2.908-1.862,5.873-2.816,8.895c-0.942,3.022-1.93,6.194-2.976,9.516c-1.034,3.31-2.161,6.872-3.355,10.664
	c-0.311,0.942-0.563,1.701-0.747,2.275c-0.184,0.563-0.287,1.046-0.287,1.448c0.011,0.759,0.149,1.356,0.425,1.77
	c0.276,0.425,0.632,0.632,1.092,0.644c0.482,0,0.977-0.011,1.482-0.034c0.518-0.023,1.081-0.035,1.689-0.035
	c0.77,0.012,1.459-0.046,2.08-0.184c0.62-0.138,1.126-0.459,1.494-0.942s0.552-1.23,0.563-2.252
	c0.655-2.355,1.367-4.849,2.125-7.481c0.759-2.632,1.563-5.332,2.425-8.102h1.931c1.321,0,2.85-0.115,4.596-0.333
	c1.736-0.229,3.598-0.586,5.563-1.057c1.965-0.471,3.942-1.069,5.93-1.804c1.988-0.735,3.873-1.609,5.677-2.632
	c1.804-1.011,3.402-2.172,4.815-3.482c1.413-1.321,2.517-2.781,3.333-4.413C148.264,23.346,148.689,21.554,148.701,19.6
	L148.701,19.6z M94.989,30.425c0.666,0.012,1.207,0.196,1.631,0.563c0.414,0.356,0.632,0.839,0.644,1.437
	c0,0.528-0.138,1.16-0.402,1.896c-0.265,0.747-0.667,1.517-1.207,2.31c-0.528,0.804-1.183,1.551-1.976,2.252
	c-0.793,0.689-1.712,1.264-2.758,1.689c-1.046,0.437-2.218,0.667-3.517,0.679c-0.207,0-0.414,0-0.621-0.012
	c-0.207,0-0.414-0.023-0.621-0.058c0.598-1.414,1.253-2.758,1.988-4.034c0.735-1.287,1.505-2.436,2.298-3.436
	c0.793-1.011,1.574-1.805,2.356-2.391C93.586,30.736,94.311,30.437,94.989,30.425L94.989,30.425z M103.538,33.873
	c-0.011-0.839-0.252-1.643-0.712-2.402c-0.471-0.747-1.091-1.459-1.862-2.103c-0.77-0.655-1.621-1.241-2.54-1.759
	c-0.93-0.528-1.861-0.977-2.792-1.344c-0.931-0.368-1.792-0.655-2.574-0.85c-0.793-0.196-1.436-0.299-1.93-0.299
	c-1.161,0.011-2.287,0.333-3.355,0.965c-1.081,0.632-2.104,1.494-3.057,2.585c-0.965,1.092-1.85,2.333-2.677,3.724
	c-0.816,1.39-1.552,2.85-2.207,4.378c-0.655,1.54-1.218,3.057-1.678,4.574c-0.471,1.505-0.816,2.93-1.068,4.264
	c-0.242,1.344-0.368,2.505-0.368,3.504c0,0.931,0.138,1.793,0.414,2.574c0.275,0.771,0.724,1.506,1.333,2.207
	c0.609,0.701,1.402,1.413,2.39,2.114c0.586,0.414,1.299,0.782,2.161,1.103c0.85,0.322,1.781,0.575,2.804,0.759
	c1.023,0.184,2.081,0.276,3.172,0.276c1.414,0,2.965-0.276,4.677-0.839c1.712-0.552,3.597-1.402,5.666-2.54
	c1.667-0.92,3.011-1.758,4.021-2.528c1.012-0.771,1.747-1.471,2.207-2.091c0.448-0.621,0.678-1.172,0.667-1.655
	c0-0.379-0.069-0.689-0.207-0.908c-0.139-0.218-0.345-0.333-0.621-0.333c-0.057-0.012-0.149,0.011-0.287,0.057
	c-0.126,0.046-0.368,0.149-0.701,0.322c-0.345,0.161-0.85,0.425-1.528,0.781c-0.667,0.356-1.574,0.839-2.724,1.459
	c-1.666,0.896-3.287,1.608-4.849,2.16c-1.552,0.552-2.954,0.942-4.206,1.195c-1.253,0.253-2.264,0.368-3.011,0.368
	c-0.597,0-1.195-0.149-1.815-0.437c-0.621-0.288-1.149-0.689-1.586-1.218c-0.425-0.529-0.644-1.149-0.667-1.862
	c0-0.621,0.046-1.287,0.149-2c0.092-0.712,0.23-1.448,0.402-2.207c2.815-0.069,5.286-0.39,7.4-0.965
	c2.115-0.575,3.907-1.311,5.378-2.207c1.482-0.896,2.666-1.873,3.574-2.918c0.919-1.058,1.574-2.091,1.988-3.125
	C103.343,35.631,103.55,34.701,103.538,33.873L103.538,33.873z M68.995,30.425c0.666,0.012,1.206,0.196,1.631,0.563
	c0.414,0.356,0.632,0.839,0.644,1.437c0,0.528-0.138,1.16-0.402,1.896c-0.264,0.747-0.667,1.517-1.207,2.31
	c-0.528,0.804-1.184,1.551-1.976,2.252c-0.793,0.689-1.712,1.264-2.758,1.689c-1.046,0.437-2.218,0.667-3.517,0.679
	c-0.207,0-0.414,0-0.621-0.012c-0.207,0-0.414-0.023-0.621-0.058c0.598-1.414,1.253-2.758,1.988-4.034
	c0.736-1.287,1.506-2.436,2.298-3.436c0.793-1.011,1.575-1.805,2.356-2.391C67.592,30.736,68.316,30.437,68.995,30.425
	L68.995,30.425z M77.544,33.873c-0.012-0.839-0.253-1.643-0.712-2.402c-0.471-0.747-1.092-1.459-1.862-2.103
	c-0.77-0.655-1.62-1.241-2.54-1.759c-0.931-0.528-1.862-0.977-2.792-1.344c-0.931-0.368-1.793-0.655-2.574-0.85
	c-0.793-0.196-1.437-0.299-1.931-0.299c-1.161,0.011-2.287,0.333-3.356,0.965c-1.08,0.632-2.103,1.494-3.057,2.585
	c-0.965,1.092-1.85,2.333-2.677,3.724c-0.815,1.39-1.551,2.85-2.207,4.378c-0.655,1.54-1.218,3.057-1.678,4.574
	c-0.471,1.505-0.816,2.93-1.068,4.264c-0.241,1.344-0.368,2.505-0.368,3.504c0,0.931,0.138,1.793,0.414,2.574
	c0.276,0.771,0.724,1.506,1.333,2.207c0.609,0.701,1.402,1.413,2.391,2.114c0.586,0.414,1.299,0.782,2.16,1.103
	c0.851,0.322,1.782,0.575,2.805,0.759c1.022,0.184,2.08,0.276,3.171,0.276c1.414,0,2.965-0.276,4.677-0.839
	c1.712-0.552,3.597-1.402,5.666-2.54c1.667-0.92,3.011-1.758,4.022-2.528c1.011-0.771,1.747-1.471,2.206-2.091
	c0.448-0.621,0.678-1.172,0.667-1.655c0-0.379-0.069-0.689-0.207-0.908c-0.138-0.218-0.345-0.333-0.621-0.333
	c-0.057-0.012-0.149,0.011-0.287,0.057c-0.126,0.046-0.368,0.149-0.701,0.322c-0.345,0.161-0.851,0.425-1.528,0.781
	c-0.667,0.356-1.574,0.839-2.724,1.459c-1.666,0.896-3.287,1.608-4.85,2.16c-1.552,0.552-2.953,0.942-4.206,1.195
	c-1.252,0.253-2.264,0.368-3.01,0.368c-0.598,0-1.196-0.149-1.816-0.437c-0.621-0.288-1.149-0.689-1.586-1.218
	c-0.425-0.529-0.644-1.149-0.667-1.862c0-0.621,0.046-1.287,0.149-2c0.092-0.712,0.23-1.448,0.402-2.207
	c2.815-0.069,5.286-0.39,7.401-0.965c2.114-0.575,3.907-1.311,5.378-2.207c1.482-0.896,2.666-1.873,3.574-2.918
	c0.919-1.058,1.574-2.091,1.988-3.125C77.349,35.631,77.556,34.701,77.544,33.873L77.544,33.873z M257.504,37.458
	c0.012-0.839,0.265-1.586,0.759-2.207c0.482-0.632,1.126-1.161,1.919-1.574c0.781-0.425,1.644-0.736,2.563-0.942
	s1.815-0.31,2.689-0.31c1.184,0.011,2.148,0.104,2.885,0.264c0.735,0.172,1.31,0.333,1.724,0.505
	c0.401,0.161,0.712,0.253,0.907,0.264c0.288-0.011,0.528-0.104,0.701-0.275c0.173-0.184,0.333-0.414,0.46-0.689
	c0.126-0.264,0.275-0.541,0.425-0.828c0.185-0.345,0.368-0.655,0.54-0.954c0.184-0.288,0.275-0.563,0.287-0.839
	c-0.012-0.459-0.275-0.862-0.781-1.23c-0.494-0.356-1.16-0.678-1.988-0.942c-0.815-0.264-1.724-0.495-2.7-0.678
	c-0.977-0.172-1.942-0.311-2.896-0.391c-0.954-0.091-1.827-0.138-2.598-0.138c-1.275,0-2.586,0.195-3.896,0.563
	c-1.321,0.38-2.586,0.908-3.792,1.586c-1.219,0.689-2.299,1.506-3.252,2.437c-0.954,0.942-1.713,1.977-2.275,3.114
	c-0.552,1.126-0.839,2.333-0.851,3.609c0.012,1.149,0.275,2.172,0.781,3.091c0.506,0.908,1.16,1.735,1.953,2.459
	c0.793,0.735,1.644,1.39,2.54,1.988s1.747,1.149,2.54,1.667c0.793,0.505,1.448,1,1.953,1.482c0.506,0.471,0.77,0.953,0.782,1.448
	c0.011,0.598-0.23,1.092-0.736,1.471c-0.494,0.391-1.311,0.586-2.436,0.598c-1.047-0.011-2.012-0.138-2.896-0.391
	c-0.873-0.253-1.678-0.575-2.379-0.942c-0.712-0.379-1.333-0.747-1.861-1.126c-0.54-0.368-0.978-0.689-1.333-0.942l-0.013-0.01
	c0.001-0.035,0.002-0.07,0.001-0.105c0-0.379-0.069-0.689-0.207-0.908c-0.138-0.218-0.345-0.333-0.621-0.333
	c-0.057-0.012-0.149,0.011-0.287,0.057c-0.126,0.046-0.367,0.149-0.7,0.322c-0.345,0.161-0.851,0.425-1.528,0.781
	c-0.667,0.356-1.574,0.839-2.724,1.459c-1.666,0.896-3.287,1.608-4.85,2.16c-1.552,0.552-2.953,0.942-4.206,1.195
	s-2.264,0.368-3.011,0.368c-0.598,0-1.195-0.149-1.815-0.437c-0.621-0.288-1.149-0.689-1.586-1.218
	c-0.426-0.529-0.644-1.149-0.667-1.862c0-0.621,0.046-1.287,0.149-2c0.092-0.712,0.23-1.448,0.402-2.207
	c2.815-0.069,5.286-0.39,7.4-0.965c2.115-0.575,3.907-1.311,5.379-2.207c1.482-0.896,2.665-1.873,3.573-2.918
	c0.92-1.058,1.574-2.091,1.988-3.125c0.426-1.023,0.632-1.954,0.62-2.781c-0.011-0.839-0.252-1.643-0.712-2.402
	c-0.472-0.747-1.092-1.459-1.862-2.103c-0.77-0.655-1.62-1.241-2.539-1.759c-0.931-0.528-1.862-0.977-2.793-1.344
	c-0.931-0.368-1.793-0.655-2.574-0.85c-0.793-0.196-1.436-0.299-1.931-0.299c-1.16,0.011-2.286,0.333-3.355,0.965
	c-1.08,0.632-2.103,1.494-3.057,2.585c-0.965,1.092-1.851,2.333-2.678,3.724c-0.815,1.39-1.551,2.85-2.206,4.378
	c-0.655,1.54-1.218,3.057-1.678,4.574c-0.472,1.505-0.815,2.93-1.068,4.264c-0.241,1.344-0.368,2.505-0.368,3.504
	c0,0.931,0.138,1.793,0.414,2.574c0.275,0.771,0.724,1.506,1.332,2.207c0.609,0.701,1.402,1.413,2.392,2.114
	c0.585,0.414,1.298,0.782,2.159,1.103c0.851,0.322,1.782,0.575,2.805,0.759c1.022,0.184,2.08,0.276,3.172,0.276
	c1.413,0,2.965-0.276,4.677-0.839c1.712-0.552,3.597-1.402,5.666-2.54c1.357-0.75,2.501-1.445,3.425-2.093
	c0.345,0.276,0.811,0.581,1.401,0.921c1.608,0.908,3.103,1.62,4.505,2.138c1.401,0.517,2.734,0.873,3.999,1.08
	c1.252,0.207,2.459,0.31,3.632,0.298c1.459-0.011,2.838-0.195,4.125-0.574c1.287-0.368,2.437-0.896,3.425-1.574
	c0.988-0.667,1.77-1.46,2.344-2.356c0.563-0.908,0.851-1.885,0.862-2.942c-0.012-0.828-0.276-1.586-0.781-2.287
	c-0.506-0.701-1.161-1.368-1.954-2c-0.793-0.621-1.644-1.242-2.54-1.839c-0.896-0.609-1.746-1.218-2.539-1.839
	c-0.793-0.632-1.448-1.287-1.954-1.977C257.781,39.021,257.516,38.274,257.504,37.458L257.504,37.458z M290.17,25.556
	c0,1.402-2.354,3.927-3.624,4.589c-0.781,0.425-1.643,0.735-2.563,0.942c-0.919,0.207-1.815,0.311-2.689,0.311
	c-1.184-0.011-2.148-0.104-2.884-0.264c-0.735-0.172-1.311-0.333-1.724-0.505c-0.402-0.161-0.713-0.253-0.908-0.265
	c-0.287,0.011-0.528,0.104-0.701,0.276c-0.172,0.184-0.333,0.414-0.459,0.689c-0.127,0.264-0.276,0.54-0.426,0.828
	c-0.184,0.344-0.367,0.655-0.54,0.954c-0.184,0.287-0.275,0.563-0.287,0.839c0.012,0.459,0.276,0.862,0.781,1.229
	c0.494,0.356,1.161,0.678,1.988,0.942c0.816,0.264,1.724,0.494,2.7,0.678c0.978,0.173,1.942,0.311,2.896,0.391
	c0.953,0.092,1.827,0.138,2.597,0.138c1.275,0,2.586-0.195,3.896-0.563c1.322-0.379,2.586-0.908,3.793-1.586
	c2.471-1.399,5.69-4.11,6.257-7.802v0c0.514,0.949,1.082,1.78,1.667,2.363c0.508,0.751,1.676,1.112,2.736,0.81
	c1.148-0.326,1.734-1.307,1.31-2.189c-7.354-16.26-2.134-13.785-20.493-3.1c-1.214,0.124-2.066,0.981-1.905,1.914
	s1.276,1.588,2.491,1.464C287.198,27.039,288.976,26.16,290.17,25.556L290.17,25.556z M243.569,96.667
	c0.738,0,1.481-0.259,2.22-0.777c0.743-0.518,1.405-1.214,1.991-2.088c0.586-0.875,1.027-1.834,1.324-2.874
	c0.298-1.04,0.45-1.91,0.45-2.606c0-1.044-0.255-1.88-0.769-2.504c-0.509-0.628-1.205-0.938-2.093-0.938
	c-1.027,0-1.957,0.344-2.784,1.032c-0.832,0.688-1.512,1.693-2.042,3.014c-0.53,1.325-0.794,2.683-0.794,4.075
	C241.073,95.444,241.905,96.667,243.569,96.667L243.569,96.667z M246.667,83.809c1.906,0,3.065,0.904,3.468,2.721h0.051
	c0.099-0.547,0.692-3.328,1.779-8.345h1.23l-4.104,19.352h-1.019l0.561-3.409h-0.076c-1.435,2.437-3.192,3.659-5.272,3.659
	c-2.33,0-3.493-1.553-3.493-4.652c0-1.601,0.297-3.133,0.887-4.602c0.595-1.469,1.413-2.623,2.458-3.463
	C244.18,84.229,245.356,83.809,246.667,83.809L246.667,83.809z M234.829,84.879c-1.087,0-2.097,0.476-3.03,1.435
	c-0.93,0.96-1.604,2.237-2.021,3.838h0.61c4.288,0,6.427-1.121,6.427-3.358c0-0.556-0.178-1.015-0.538-1.375
	C235.916,85.058,235.431,84.879,234.829,84.879L234.829,84.879z M232.812,97.788c-1.435,0-2.555-0.454-3.357-1.363
	c-0.802-0.908-1.205-2.173-1.205-3.799c0-1.503,0.293-2.941,0.883-4.317c0.59-1.375,1.396-2.47,2.433-3.281
	c1.031-0.814,2.169-1.218,3.413-1.218c0.941,0,1.697,0.251,2.262,0.756c0.564,0.505,0.845,1.197,0.845,2.067
	c0,1.498-0.675,2.644-2.033,3.43c-1.354,0.79-3.366,1.184-6.036,1.184h-0.412c-0.051,0.365-0.072,0.769-0.072,1.218
	c0,1.367,0.307,2.412,0.917,3.125c0.616,0.717,1.499,1.078,2.649,1.078c1.095,0,2.241-0.301,3.434-0.909v1.167
	C235.373,97.499,234.132,97.788,232.812,97.788L232.812,97.788z M217.939,96.667c0.738,0,1.481-0.259,2.22-0.777
	c0.743-0.518,1.405-1.214,1.99-2.088c0.586-0.875,1.027-1.834,1.325-2.874c0.297-1.04,0.449-1.91,0.449-2.606
	c0-1.044-0.254-1.88-0.768-2.504c-0.51-0.628-1.206-0.938-2.093-0.938c-1.027,0-1.957,0.344-2.785,1.032
	c-0.832,0.688-1.511,1.693-2.041,3.014c-0.531,1.325-0.794,2.683-0.794,4.075C215.443,95.444,216.275,96.667,217.939,96.667
	L217.939,96.667z M221.038,83.809c1.905,0,3.064,0.904,3.468,2.721h0.051c0.098-0.547,0.692-3.328,1.778-8.345h1.231l-4.104,19.352
	h-1.02l0.561-3.409h-0.076c-1.435,2.437-3.192,3.659-5.272,3.659c-2.33,0-3.493-1.553-3.493-4.652c0-1.601,0.297-3.133,0.887-4.602
	c0.595-1.469,1.414-2.623,2.458-3.463C218.55,84.229,219.725,83.809,221.038,83.809L221.038,83.809z M203.85,96.667
	c0.738,0,1.478-0.259,2.207-0.773c0.734-0.513,1.396-1.201,1.978-2.063c0.586-0.862,1.032-1.817,1.338-2.861
	c0.31-1.044,0.463-1.928,0.463-2.649c0-0.653-0.111-1.239-0.327-1.757c-0.212-0.522-0.535-0.93-0.955-1.231
	c-0.424-0.306-0.951-0.454-1.579-0.454c-1.027,0-1.957,0.34-2.784,1.019c-0.832,0.679-1.512,1.698-2.042,3.052
	c-0.531,1.354-0.794,2.704-0.794,4.05c0,1.261,0.203,2.186,0.619,2.776C202.39,96.37,203.014,96.667,203.85,96.667L203.85,96.667z
	 M206.949,83.809c1.923,0,3.082,0.904,3.468,2.721h0.076l0.734-2.512h0.994l-2.849,13.52h-1.02l0.561-3.409h-0.076
	c-0.696,1.18-1.469,2.08-2.326,2.713c-0.853,0.628-1.834,0.946-2.945,0.946c-2.331,0-3.494-1.553-3.494-4.652
	c0-1.634,0.311-3.192,0.934-4.678c0.62-1.481,1.452-2.627,2.492-3.438C204.538,84.213,205.688,83.809,206.949,83.809L206.949,83.809
	z M198.829,83.784c0.572,0,1.082,0.055,1.527,0.174l-0.259,1.155c-0.391-0.124-0.857-0.187-1.404-0.187
	c-0.781,0-1.524,0.268-2.229,0.798c-0.704,0.531-1.337,1.325-1.901,2.386s-0.977,2.211-1.244,3.447l-1.243,5.98h-1.219l2.874-13.52
	h0.993l-0.36,2.538h0.076c0.603-0.781,1.112-1.341,1.528-1.685c0.416-0.344,0.857-0.612,1.324-0.803S198.272,83.784,198.829,83.784
	L198.829,83.784z M180.572,88.695c0,0.93,0.242,1.634,0.726,2.114c0.488,0.479,1.167,0.722,2.046,0.722
	c0.73,0,1.371-0.153,1.914-0.458c0.548-0.31,0.973-0.781,1.278-1.417c0.301-0.642,0.454-1.341,0.454-2.105
	c0-0.862-0.233-1.528-0.696-2.008c-0.467-0.476-1.116-0.713-1.953-0.713c-0.772,0-1.438,0.179-2.003,0.535
	c-0.564,0.357-0.997,0.836-1.308,1.443C180.724,87.409,180.572,88.042,180.572,88.695L180.572,88.695z M177.201,100.109
	c0,0.84,0.336,1.46,1.006,1.868c0.676,0.408,1.601,0.607,2.789,0.607c1.682,0,2.997-0.306,3.939-0.925
	c0.946-0.616,1.418-1.465,1.418-2.543c0-0.705-0.259-1.244-0.777-1.622c-0.518-0.377-1.422-0.615-2.717-0.717l-1.99-0.187
	c-1.299,0.374-2.237,0.849-2.811,1.426C177.486,98.594,177.201,99.291,177.201,100.109L177.201,100.109z M190.708,84.018
	l-0.213,0.984l-3.022,0.136c0.217,0.234,0.396,0.582,0.539,1.044c0.149,0.467,0.221,0.938,0.221,1.418
	c0,0.904-0.229,1.761-0.679,2.568c-0.45,0.811-1.065,1.414-1.842,1.809c-0.773,0.399-1.66,0.598-2.653,0.598
	c-0.522,0-0.841-0.038-0.96-0.11c-0.662,0.272-1.176,0.573-1.54,0.909c-0.366,0.331-0.548,0.667-0.548,1.006
	s0.131,0.607,0.391,0.802c0.263,0.195,0.734,0.323,1.413,0.391l1.503,0.136c2.869,0.259,4.304,1.354,4.304,3.286
	c0,0.93-0.268,1.745-0.806,2.453c-0.54,0.709-1.316,1.257-2.327,1.639c-1.01,0.378-2.22,0.569-3.62,0.569
	c-1.541,0-2.751-0.298-3.625-0.896c-0.875-0.594-1.313-1.435-1.313-2.521c0-1.957,1.282-3.34,3.842-4.156
	c-0.645-0.348-0.967-0.857-0.967-1.528c0-1.019,0.789-1.859,2.376-2.513c-0.59-0.297-1.048-0.734-1.375-1.312
	c-0.326-0.577-0.492-1.231-0.492-1.957c0-0.921,0.221-1.766,0.666-2.538c0.442-0.773,1.058-1.375,1.839-1.817
	c0.785-0.438,1.643-0.658,2.567-0.658c0.573,0,1.185,0.085,1.83,0.259H190.708L190.708,84.018z M172.04,84.879
	c-0.722,0-1.439,0.242-2.161,0.726s-1.393,1.18-2.008,2.084c-0.619,0.904-1.078,1.889-1.375,2.95
	c-0.302,1.066-0.45,1.932-0.45,2.594c0,1.036,0.255,1.868,0.764,2.496c0.515,0.625,1.21,0.938,2.098,0.938
	c1.027,0,1.961-0.348,2.797-1.044c0.841-0.696,1.52-1.706,2.042-3.031c0.522-1.32,0.781-2.67,0.781-4.045
	C174.527,86.102,173.699,84.879,172.04,84.879L172.04,84.879z M168.932,97.737c-1.906,0-3.064-0.909-3.468-2.725h-0.052
	c-0.11,0.598-0.726,3.48-1.854,8.643h-1.231l4.182-19.637h1.019l-0.561,3.408h0.076c0.752-1.269,1.563-2.194,2.429-2.785
	c0.87-0.59,1.816-0.883,2.844-0.883c1.121,0,1.982,0.382,2.585,1.15c0.607,0.769,0.909,1.936,0.909,3.515
	c0,1.613-0.298,3.154-0.896,4.61c-0.594,1.46-1.413,2.61-2.453,3.446C171.416,97.316,170.244,97.737,168.932,97.737L168.932,97.737z
	 M153.26,84.018l-1.889,8.681c-0.183,0.879-0.276,1.537-0.276,1.965c0,0.615,0.199,1.104,0.594,1.46
	c0.391,0.361,0.969,0.543,1.72,0.543c0.912,0,1.774-0.271,2.581-0.815c0.811-0.543,1.489-1.32,2.041-2.326
	c0.552-1.006,0.964-2.165,1.235-3.477l1.308-6.032h1.219l-2.874,13.52h-0.993l0.348-2.551h-0.076
	c-1.384,1.834-3.052,2.751-5.009,2.751c-1.087,0-1.91-0.259-2.471-0.773c-0.561-0.513-0.841-1.265-0.841-2.25
	c0-0.497,0.094-1.201,0.276-2.114l1.863-8.583H153.26L153.26,84.018z M140.487,93.87c0,1.193-0.429,2.144-1.282,2.853
	c-0.853,0.708-2.012,1.065-3.481,1.065c-1.435,0-2.699-0.314-3.794-0.934v-1.333c0.615,0.382,1.248,0.679,1.901,0.883
	c0.658,0.208,1.27,0.314,1.843,0.314c1.146,0,2.02-0.242,2.623-0.717c0.607-0.475,0.908-1.155,0.908-2.033
	c0-0.348-0.063-0.654-0.191-0.921c-0.132-0.264-0.335-0.518-0.624-0.764c-0.284-0.242-0.836-0.599-1.647-1.062
	c-1.227-0.666-2.054-1.269-2.488-1.813c-0.428-0.539-0.645-1.201-0.645-1.982c0-1.061,0.407-1.927,1.222-2.606
	c0.819-0.674,1.893-1.01,3.23-1.01c0.62,0,1.278,0.072,1.97,0.217c0.691,0.144,1.273,0.335,1.749,0.578l-0.438,1.095
	c-1.128-0.53-2.22-0.798-3.281-0.798c-0.963,0-1.736,0.221-2.313,0.662c-0.582,0.437-0.87,1.01-0.87,1.715
	c0,0.454,0.068,0.819,0.208,1.095c0.144,0.272,0.395,0.556,0.755,0.849c0.361,0.297,0.853,0.616,1.486,0.955
	c0.943,0.522,1.613,0.951,2.008,1.286s0.684,0.692,0.87,1.074C140.394,92.919,140.487,93.365,140.487,93.87L140.487,93.87z
	 M127.927,84.879c-1.087,0-2.097,0.476-3.031,1.435c-0.93,0.96-1.605,2.237-2.021,3.838h0.611c4.288,0,6.427-1.121,6.427-3.358
	c0-0.556-0.178-1.015-0.539-1.375C129.013,85.058,128.529,84.879,127.927,84.879L127.927,84.879z M125.911,97.788
	c-1.435,0-2.556-0.454-3.358-1.363c-0.802-0.908-1.206-2.173-1.206-3.799c0-1.503,0.293-2.941,0.883-4.317
	c0.59-1.375,1.396-2.47,2.432-3.281c1.032-0.814,2.169-1.218,3.414-1.218c0.942,0,1.697,0.251,2.262,0.756
	c0.565,0.505,0.845,1.197,0.845,2.067c0,1.498-0.674,2.644-2.033,3.43c-1.354,0.79-3.367,1.184-6.037,1.184h-0.412
	c-0.051,0.365-0.072,0.769-0.072,1.218c0,1.367,0.306,2.412,0.917,3.125c0.616,0.717,1.499,1.078,2.649,1.078
	c1.095,0,2.241-0.301,3.434-0.909v1.167C128.47,97.499,127.23,97.788,125.911,97.788L125.911,97.788z M114.976,97.788
	c-1.439,0-2.577-0.458-3.413-1.375c-0.832-0.917-1.248-2.186-1.248-3.812c0-1.601,0.306-3.099,0.913-4.496
	c0.611-1.396,1.435-2.462,2.471-3.196c1.036-0.734,2.237-1.1,3.604-1.1c1.112,0,2.109,0.179,2.997,0.535l-0.348,1.116
	c-0.887-0.39-1.792-0.582-2.708-0.582c-1.069,0-2.033,0.318-2.891,0.955c-0.862,0.641-1.532,1.558-2.025,2.764
	c-0.488,1.201-0.73,2.525-0.73,3.977c0,1.312,0.301,2.318,0.913,3.027c0.607,0.709,1.473,1.065,2.594,1.065
	c0.585,0,1.134-0.055,1.634-0.161c0.501-0.11,1.048-0.297,1.634-0.573v1.146C117.412,97.55,116.279,97.788,114.976,97.788
	L114.976,97.788z M104.33,97.537l1.855-8.604c0.174-0.764,0.259-1.41,0.259-1.94c0-0.666-0.178-1.184-0.539-1.558
	c-0.361-0.37-0.917-0.556-1.672-0.556c-0.93,0-1.8,0.276-2.619,0.832c-0.815,0.556-1.503,1.333-2.063,2.331
	c-0.561,1.001-0.989,2.186-1.286,3.565l-1.27,5.93h-1.218l2.87-13.52h1.023l-0.463,2.75h0.077c1.358-1.974,3.082-2.959,5.174-2.959
	c1.074,0,1.884,0.264,2.423,0.794c0.54,0.53,0.807,1.294,0.807,2.288c0,0.581-0.098,1.336-0.297,2.262l-1.842,8.383H104.33
	L104.33,97.537z M91.136,84.879c-1.087,0-2.097,0.476-3.031,1.435c-0.929,0.96-1.604,2.237-2.021,3.838h0.611
	c4.288,0,6.427-1.121,6.427-3.358c0-0.556-0.178-1.015-0.539-1.375C92.223,85.058,91.739,84.879,91.136,84.879L91.136,84.879z
	 M89.12,97.788c-1.435,0-2.556-0.454-3.357-1.363c-0.802-0.908-1.206-2.173-1.206-3.799c0-1.503,0.292-2.941,0.883-4.317
	c0.59-1.375,1.396-2.47,2.432-3.281c1.032-0.814,2.169-1.218,3.413-1.218c0.942,0,1.698,0.251,2.262,0.756
	c0.565,0.505,0.845,1.197,0.845,2.067c0,1.498-0.675,2.644-2.033,3.43c-1.354,0.79-3.366,1.184-6.036,1.184h-0.412
	c-0.051,0.365-0.072,0.769-0.072,1.218c0,1.367,0.306,2.412,0.917,3.125c0.615,0.717,1.498,1.078,2.649,1.078
	c1.095,0,2.241-0.301,3.434-0.909v1.167C91.68,97.499,90.44,97.788,89.12,97.788L89.12,97.788z M81.73,80.549
	c0-0.454,0.093-0.819,0.276-1.095c0.183-0.272,0.429-0.408,0.748-0.408c0.471,0,0.708,0.297,0.708,0.892
	c0,0.476-0.093,0.849-0.276,1.121c-0.183,0.276-0.416,0.412-0.709,0.412c-0.237,0-0.425-0.081-0.552-0.242
	C81.798,81.067,81.73,80.838,81.73,80.549L81.73,80.549z M79.544,97.537h-1.218l2.87-13.52h1.197L79.544,97.537L79.544,97.537z
	 M76.895,83.784c0.573,0,1.083,0.055,1.528,0.174l-0.259,1.155c-0.391-0.124-0.857-0.187-1.405-0.187
	c-0.781,0-1.524,0.268-2.229,0.798c-0.705,0.531-1.337,1.325-1.901,2.386c-0.565,1.061-0.977,2.211-1.244,3.447l-1.244,5.98h-1.218
	l2.874-13.52h0.993l-0.361,2.538h0.077c0.603-0.781,1.112-1.341,1.528-1.685c0.416-0.344,0.857-0.612,1.325-0.803
	C75.826,83.877,76.339,83.784,76.895,83.784L76.895,83.784z M64.334,84.879c-1.086,0-2.097,0.476-3.03,1.435
	c-0.93,0.96-1.605,2.237-2.021,3.838h0.611c4.287,0,6.427-1.121,6.427-3.358c0-0.556-0.178-1.015-0.54-1.375
	C65.421,85.058,64.937,84.879,64.334,84.879L64.334,84.879z M62.318,97.788c-1.435,0-2.556-0.454-3.358-1.363
	c-0.802-0.908-1.206-2.173-1.206-3.799c0-1.503,0.293-2.941,0.883-4.317c0.59-1.375,1.396-2.47,2.432-3.281
	c1.032-0.814,2.169-1.218,3.413-1.218c0.942,0,1.698,0.251,2.262,0.756c0.564,0.505,0.845,1.197,0.845,2.067
	c0,1.498-0.675,2.644-2.033,3.43c-1.354,0.79-3.366,1.184-6.037,1.184h-0.412c-0.051,0.365-0.072,0.769-0.072,1.218
	c0,1.367,0.306,2.412,0.917,3.125c0.615,0.717,1.498,1.078,2.649,1.078c1.095,0,2.241-0.301,3.434-0.909v1.167
	C64.878,97.499,63.638,97.788,62.318,97.788L62.318,97.788z M51.498,84.879c-0.721,0-1.439,0.242-2.161,0.726
	s-1.392,1.18-2.008,2.084c-0.62,0.904-1.078,1.889-1.375,2.95c-0.302,1.066-0.45,1.932-0.45,2.594c0,1.036,0.255,1.868,0.764,2.496
	c0.514,0.625,1.21,0.938,2.097,0.938c1.028,0,1.961-0.348,2.797-1.044c0.841-0.696,1.52-1.706,2.042-3.031
	c0.522-1.32,0.781-2.67,0.781-4.045C53.985,86.102,53.158,84.879,51.498,84.879L51.498,84.879z M48.391,97.737
	c-1.906,0-3.065-0.909-3.468-2.725h-0.051c-0.11,0.598-0.726,3.48-1.855,8.643h-1.231l4.181-19.637h1.019l-0.561,3.408h0.077
	c0.751-1.269,1.562-2.194,2.428-2.785c0.87-0.59,1.816-0.883,2.844-0.883c1.121,0,1.982,0.382,2.585,1.15
	c0.607,0.769,0.908,1.936,0.908,3.515c0,1.613-0.297,3.154-0.896,4.61c-0.595,1.46-1.414,2.61-2.454,3.446
	C50.874,97.316,49.703,97.737,48.391,97.737L48.391,97.737z M36.229,91.531l-4.886,6.006h-1.506l5.857-6.953l-3.048-6.566h1.244
	l2.577,5.747l4.635-5.747h1.494l-5.573,6.643l3.208,6.877h-1.218L36.229,91.531L36.229,91.531z M27.549,84.879
	c-1.087,0-2.097,0.476-3.031,1.435c-0.93,0.96-1.605,2.237-2.021,3.838h0.611c4.287,0,6.427-1.121,6.427-3.358
	c0-0.556-0.178-1.015-0.539-1.375C28.636,85.058,28.151,84.879,27.549,84.879L27.549,84.879z M25.532,97.788
	c-1.435,0-2.555-0.454-3.358-1.363c-0.802-0.908-1.205-2.173-1.205-3.799c0-1.503,0.293-2.941,0.883-4.317
	c0.59-1.375,1.396-2.47,2.433-3.281c1.031-0.814,2.169-1.218,3.413-1.218c0.942,0,1.698,0.251,2.262,0.756
	c0.565,0.505,0.845,1.197,0.845,2.067c0,1.498-0.675,2.644-2.033,3.43c-1.354,0.79-3.367,1.184-6.037,1.184h-0.412
	c-0.051,0.365-0.072,0.769-0.072,1.218c0,1.367,0.306,2.412,0.917,3.125c0.616,0.717,1.499,1.078,2.649,1.078
	c1.095,0,2.241-0.301,3.434-0.909v1.167C28.092,97.499,26.853,97.788,25.532,97.788L25.532,97.788z M16.73,52.42
	c-1.494-0.011-2.873-0.138-4.148-0.402c-1.276-0.253-2.391-0.598-3.344-1.023c-0.965-0.425-1.712-0.885-2.241-1.402
	c-0.541-0.505-0.805-1.012-0.816-1.517c0.012-0.275,0.081-0.54,0.196-0.805c0.126-0.264,0.241-0.54,0.367-0.804
	c0.115-0.264,0.184-0.528,0.196-0.804c-0.012-0.356-0.104-0.678-0.299-1c-0.195-0.311-0.437-0.563-0.735-0.759
	c-0.288-0.207-0.586-0.299-0.896-0.311c-0.655,0.012-1.31,0.253-1.954,0.712c-0.632,0.471-1.161,1.103-1.586,1.908
	c-0.425,0.793-0.655,1.689-0.667,2.689c-0.012,1.437,0.368,2.758,1.138,3.964c0.77,1.207,1.988,2.252,3.643,3.149
	c1.644,0.885,3.804,1.574,6.447,2.068s5.85,0.735,9.595,0.747c1.758,0,3.62-0.161,5.585-0.46c1.965-0.31,3.918-0.758,5.883-1.333
	c1.965-0.586,3.827-1.287,5.597-2.126c1.77-0.828,3.344-1.758,4.723-2.816c1.379-1.045,2.471-2.194,3.264-3.436
	c0.793-1.242,1.207-2.563,1.218-3.965c-0.011-1.207-0.379-2.264-1.08-3.195c-0.701-0.931-1.667-1.747-2.885-2.448
	c-1.229-0.712-2.62-1.333-4.183-1.885c-1.563-0.54-3.207-1.034-4.942-1.471c-1.724-0.437-3.458-0.839-5.182-1.229
	c-1.724-0.379-3.356-0.758-4.896-1.149c-2.149-0.54-3.827-1-5.056-1.391c-1.229-0.379-2.103-0.77-2.621-1.149
	c-0.505-0.391-0.747-0.851-0.735-1.391c0.012-0.908,0.356-1.873,1.012-2.919c0.655-1.034,1.551-2.103,2.688-3.183
	c1.138-1.092,2.437-2.16,3.884-3.206c1.448-1.046,2.965-2.034,4.563-2.953c1.585-0.92,3.171-1.735,4.734-2.437
	s3.045-1.253,4.413-1.655c1.379-0.402,2.574-0.598,3.597-0.609c0.265,0,0.54,0.046,0.828,0.161c0.299,0.115,0.575,0.311,0.828,0.598
	c0.241,0.276,0.425,0.667,0.551,1.172c-0.035,0.265-0.058,0.495-0.058,0.667c-0.011,0.184-0.011,0.379-0.011,0.575
	c0,0.908,0.104,1.839,0.333,2.792c0.23,0.942,0.598,2.011,1.115,3.206c0.609,1.414,1.126,2.505,1.563,3.275
	c0.426,0.77,0.839,1.31,1.219,1.608c0.391,0.299,0.816,0.438,1.287,0.425c0.517-0.011,1-0.149,1.471-0.402
	c0.46-0.264,0.908-0.586,1.356-0.977c0.322-0.264,0.632-0.574,0.908-0.919c0.288-0.356,0.518-0.827,0.69-1.425
	c0.172-0.586,0.264-1.367,0.264-2.344c-0.011-0.862-0.195-1.815-0.563-2.861c-0.369-1.057-0.862-2.149-1.471-3.287
	c-0.609-1.126-1.288-2.252-2.034-3.367c-0.701-1.068-1.345-1.999-1.954-2.804c-0.609-0.804-1.229-1.47-1.874-2.011
	c-0.643-0.529-1.367-0.931-2.183-1.195c-0.816-0.264-1.77-0.402-2.884-0.402c-1.149,0-2.54,0.195-4.172,0.586
	c-1.643,0.379-3.413,0.942-5.309,1.655c-1.907,0.724-3.838,1.585-5.792,2.597c-1.954,1.011-3.826,2.137-5.62,3.378
	c-1.792,1.253-3.401,2.597-4.815,4.045c-1.424,1.437-2.539,2.953-3.367,4.539c-0.827,1.598-1.241,3.229-1.264,4.918
	c0,0.495,0.023,1.058,0.08,1.667c0.058,0.608,0.161,1.183,0.333,1.712c0.207,1.861,0.805,3.436,1.804,4.7
	c0.989,1.275,2.356,2.356,4.091,3.241c1.747,0.885,3.85,1.689,6.309,2.401c1,0.299,2.125,0.598,3.378,0.897
	c1.253,0.298,2.552,0.597,3.884,0.896c1.345,0.299,2.632,0.609,3.896,0.908c1.252,0.299,2.379,0.597,3.391,0.908
	c0.999,0.298,1.804,0.608,2.401,0.907c0.586,0.311,0.896,0.621,0.908,0.931c-0.011,0.54-0.414,1.081-1.184,1.62
	c-0.758,0.529-1.804,1.046-3.125,1.54c-1.31,0.494-2.804,0.943-4.458,1.368c-1.655,0.414-3.379,0.781-5.171,1.091
	c-1.793,0.322-3.563,0.563-5.286,0.736S18.178,52.42,16.73,52.42L16.73,52.42z"/>
</svg>
